# xmcd CD database file
#
# Track frame offsets:
#	150
#	12199
#	24281
#	38242
#	51615
#	69218
#
# Disc length: 1117 seconds
#
# Revision: 0
# Processed by: cddbd v1.4PL0 Copyright (c) Steve Scherf et al.
# Submitted via: CDex 1.51
#
DISCID=44045b06
DTITLE=Jaw Raw Blues Connection - To The Ground
DYEAR=2003
DGENRE=Blues
TTITLE0=Fire
TTITLE1=I Ain't Drunk
TTITLE2=I Am Crazy for My Baby
TTITLE3=I Feel Good
TTITLE4=To The Ground
TTITLE5=Down To The Bone
EXTD=YEAR: 2003
EXTT0=
EXTT1=
EXTT2=
EXTT3=
EXTT4=
EXTT5=
PLAYORDER=
